<svg width="29" height="29" viewBox="0 0 29 29" fill="none" xmlns="http://www.w3.org/2000/svg">
<path fill-rule="evenodd" clip-rule="evenodd" d="M3.64911 10.9687C2.88969 11.6521 2.45605 12.6258 2.45605 13.6475V22.8544C2.45605 24.8449 4.06963 26.4584 6.06006 26.4584H22.8787C24.8692 26.4584 26.4827 24.8449 26.4827 22.8544V13.6475C26.4827 12.6258 26.0491 11.6521 25.2897 10.9687L16.8804 3.40026C15.5098 2.16671 13.429 2.16671 12.0584 3.40027L3.64911 10.9687ZM13.2681 15.6464C11.9411 15.6464 10.8654 16.7221 10.8654 18.0491V22.8544C10.8654 23.5179 11.4033 24.0558 12.0667 24.0558H16.8721C17.5356 24.0558 18.0734 23.5179 18.0734 22.8544V18.0491C18.0734 16.7221 16.9977 15.6464 15.6707 15.6464H13.2681Z" fill="#9E9E9E"/>
</svg>
