<svg width="31" height="34" viewBox="0 0 31 34" fill="none" xmlns="http://www.w3.org/2000/svg">
<path fill-rule="evenodd" clip-rule="evenodd" d="M15.2239 18.4448C16.6253 18.4448 17.7612 17.3089 17.7612 15.9075C17.7612 14.5062 16.6253 13.3703 15.2239 13.3703C13.8226 13.3703 12.6867 14.5062 12.6867 15.9075C12.6867 17.3089 13.8226 18.4448 15.2239 18.4448ZM15.2239 20.982C18.0265 20.982 20.2985 18.7101 20.2985 15.9075C20.2985 13.1049 18.0265 10.833 15.2239 10.833C12.4214 10.833 10.1494 13.1049 10.1494 15.9075C10.1494 18.7101 12.4214 20.982 15.2239 20.982Z" fill="#141416"/>
<path fill-rule="evenodd" clip-rule="evenodd" d="M23.5441 28.0212C26.2189 25.6953 27.9097 22.2675 27.9097 18.4446C27.9097 11.4381 22.2298 5.7583 15.2234 5.7583C8.21695 5.7583 2.53711 11.4381 2.53711 18.4446C2.53711 22.2675 4.22799 25.6953 6.90267 28.0212C9.13009 29.9582 12.0398 31.1309 15.2234 31.1309C18.2887 31.1309 21.1001 30.0437 23.293 28.234C23.3777 28.1641 23.4614 28.0932 23.5441 28.0212ZM15.5506 28.5884C15.442 28.5919 15.3329 28.5936 15.2234 28.5936C15.2125 28.5936 15.2015 28.5936 15.1905 28.5936C15.0886 28.5933 14.9868 28.5915 14.8856 28.5881C13.1827 28.5324 11.5859 28.0573 10.1953 27.2626C11.3564 25.756 13.1786 24.7877 15.2234 24.7877C17.2682 24.7877 19.0904 25.756 20.2515 27.2626C18.858 28.0589 17.2574 28.5344 15.5506 28.5884ZM22.28 25.739C20.6572 23.6182 18.1 22.2505 15.2234 22.2505C12.3468 22.2505 9.78961 23.6182 8.16677 25.739C6.25987 23.8937 5.07437 21.3076 5.07437 18.4446C5.07437 12.8394 9.61824 8.29556 15.2234 8.29556C20.8286 8.29556 25.3724 12.8394 25.3724 18.4446C25.3724 21.3076 24.1869 23.8937 22.28 25.739Z" fill="#141416"/>
</svg>
