<svg width="31" height="31" viewBox="0 0 31 31" fill="none" xmlns="http://www.w3.org/2000/svg">
<path fill-rule="evenodd" clip-rule="evenodd" d="M15.2912 7.93196C9.49418 7.93196 4.77811 12.648 4.77811 18.4451C4.77811 24.2422 9.49418 28.9582 15.2912 28.9582C21.0883 28.9582 25.8044 24.2422 25.8044 18.4451C25.8044 12.648 21.0883 7.93196 15.2912 7.93196ZM15.2912 30.8134C8.47131 30.8134 2.92285 25.265 2.92285 18.4451C2.92285 11.6251 8.47131 6.07666 15.2912 6.07666C22.1112 6.07666 27.6596 11.6251 27.6596 18.4451C27.6596 25.265 22.1112 30.8134 15.2912 30.8134Z" fill="#9E9E9E"/>
<path fill-rule="evenodd" clip-rule="evenodd" d="M19.5348 23.012C19.3728 23.012 19.2096 22.97 19.0599 22.8821L14.397 20.1005C14.1175 19.9323 13.9443 19.6293 13.9443 19.3027V13.3065C13.9443 12.7945 14.3599 12.3789 14.872 12.3789C15.3853 12.3789 15.7996 12.7945 15.7996 13.3065V18.7758L20.011 21.2866C20.4501 21.5501 20.5948 22.119 20.3326 22.5593C20.1582 22.85 19.8502 23.012 19.5348 23.012Z" fill="#9E9E9E"/>
</svg>
