<svg width="30" height="29" viewBox="0 0 30 29" fill="none" xmlns="http://www.w3.org/2000/svg">
<path fill-rule="evenodd" clip-rule="evenodd" d="M21.7724 20.9099C18.6698 20.9099 18.6698 21.1446 18.6698 24.0125V24.0407C18.6698 25.2896 18.6698 26.1922 18.9756 26.5735C19.2746 26.9436 20.1625 27.1151 21.7724 27.1151C23.3824 27.1151 24.2703 26.9425 24.5692 26.5724C24.875 26.1922 24.875 25.2896 24.875 24.0396C24.875 21.1446 24.875 20.9099 21.7724 20.9099ZM21.7724 28.8075C19.8703 28.8075 18.4431 28.6078 17.659 27.6342C16.9775 26.7892 16.9775 25.6361 16.9775 24.0409L17.8237 24.0126H16.9775C16.9775 20.7747 17.1817 19.2178 21.7724 19.2178C26.3631 19.2178 26.5673 20.7747 26.5673 24.0126C26.5673 25.635 26.5673 26.7892 25.8858 27.6342C25.1017 28.6078 23.6746 28.8075 21.7724 28.8075Z" fill="#9E9E9E"/>
<path fill-rule="evenodd" clip-rule="evenodd" d="M9.36225 20.9099C6.25968 20.9099 6.25968 21.1446 6.25968 24.0125V24.0407C6.25968 25.2896 6.25968 26.1922 6.56543 26.5735C6.8644 26.9436 7.7523 27.1151 9.36225 27.1151C10.9722 27.1151 11.8601 26.9425 12.1591 26.5724C12.4648 26.1922 12.4648 25.2896 12.4648 24.0396C12.4648 21.1446 12.4648 20.9099 9.36225 20.9099ZM9.36225 28.8075C7.4601 28.8075 6.03292 28.6078 5.24882 27.6342C4.56738 26.7892 4.56738 25.6361 4.56738 24.0409L5.41354 24.0126H4.56738C4.56738 20.7747 4.77159 19.2178 9.36225 19.2178C13.9529 19.2178 14.1571 20.7747 14.1571 24.0126C14.1571 25.635 14.1571 26.7892 13.4757 27.6342C12.6916 28.6078 11.2644 28.8075 9.36225 28.8075Z" fill="#9E9E9E"/>
<path fill-rule="evenodd" clip-rule="evenodd" d="M21.7724 8.4999C18.6698 8.4999 18.6698 8.73456 18.6698 11.6025V11.6307C18.6698 12.8796 18.6698 13.7822 18.9756 14.1635C19.2746 14.5335 20.1625 14.705 21.7724 14.705C23.3824 14.705 24.2703 14.5324 24.5692 14.1624C24.875 13.7822 24.875 12.8796 24.875 11.6295C24.875 8.73456 24.875 8.4999 21.7724 8.4999ZM21.7724 16.3974C19.8703 16.3974 18.4431 16.1977 17.659 15.224C16.9775 14.379 16.9775 13.226 16.9775 11.6307L17.8237 11.6025H16.9775C16.9775 8.36454 17.1817 6.80762 21.7724 6.80762C26.3631 6.80762 26.5673 8.36454 26.5673 11.6025C26.5673 13.2248 26.5673 14.379 25.8858 15.224C25.1017 16.1977 23.6746 16.3974 21.7724 16.3974Z" fill="#9E9E9E"/>
<path fill-rule="evenodd" clip-rule="evenodd" d="M9.36225 8.4999C6.25968 8.4999 6.25968 8.73456 6.25968 11.6025V11.6307C6.25968 12.8796 6.25968 13.7822 6.56543 14.1635C6.8644 14.5335 7.7523 14.705 9.36225 14.705C10.9722 14.705 11.8601 14.5324 12.1591 14.1624C12.4648 13.7822 12.4648 12.8796 12.4648 11.6295C12.4648 8.73456 12.4648 8.4999 9.36225 8.4999ZM9.36225 16.3974C7.4601 16.3974 6.03292 16.1977 5.24882 15.224C4.56738 14.379 4.56738 13.226 4.56738 11.6307L5.41354 11.6025H4.56738C4.56738 8.36454 4.77159 6.80762 9.36225 6.80762C13.9529 6.80762 14.1571 8.36454 14.1571 11.6025C14.1571 13.2248 14.1571 14.379 13.4757 15.224C12.6916 16.1977 11.2644 16.3974 9.36225 16.3974Z" fill="#9E9E9E"/>
</svg>
