<svg width="25" height="25" viewBox="0 0 25 25" fill="none" xmlns="http://www.w3.org/2000/svg">
<path fill-rule="evenodd" clip-rule="evenodd" d="M8.35102 8.99179C7.2971 8.96827 6.46175 8.09493 6.48508 7.04101C6.50842 5.98708 7.38161 5.15157 8.43554 5.17473C9.48946 5.19788 10.3251 6.07092 10.3022 7.12486C10.2911 7.63121 10.0793 8.11242 9.71339 8.46257C9.34745 8.81271 8.85737 9.00309 8.35102 8.99179V8.99179Z" stroke="#909090" stroke-width="1.5" stroke-linecap="round" stroke-linejoin="round"/>
<path fill-rule="evenodd" clip-rule="evenodd" d="M17.1207 15.5483C18.1748 15.5712 19.0107 16.4443 18.9877 17.4984C18.9647 18.5525 18.0916 19.3883 17.0376 19.3653C15.9835 19.3424 15.1476 18.4693 15.1706 17.4152C15.1936 16.3611 16.0667 15.5253 17.1207 15.5483V15.5483Z" stroke="#909090" stroke-width="1.5" stroke-linecap="round" stroke-linejoin="round"/>
<path d="M17.0893 11.7291C17.0803 12.1432 17.4087 12.4862 17.8228 12.4952C18.2369 12.5042 18.5799 12.1759 18.5889 11.7617L17.0893 11.7291ZM17.8765 10.0318L18.6263 10.0481L18.6264 10.0438L17.8765 10.0318ZM15.1648 7.23107L15.1485 7.9809L15.1526 7.98097L15.1648 7.23107ZM10.3183 6.37528C9.90422 6.36625 9.56119 6.69464 9.55217 7.10876C9.54314 7.52287 9.87154 7.86589 10.2857 7.87492L10.3183 6.37528ZM17.3205 11.2036C17.0213 11.4901 17.0109 11.9648 17.2974 12.2641C17.5838 12.5633 18.0586 12.5736 18.3578 12.2872L17.3205 11.2036ZM20.3079 10.4202C20.6071 10.1338 20.6175 9.659 20.331 9.3598C20.0446 9.06059 19.5698 9.05024 19.2706 9.33669L20.3079 10.4202ZM17.2974 12.2641C17.5838 12.5633 18.0586 12.5736 18.3578 12.2872C18.657 12.0007 18.6673 11.526 18.3809 11.2268L17.2974 12.2641ZM16.5139 9.27661C16.2275 8.97741 15.7527 8.96706 15.4535 9.25351C15.1543 9.53995 15.144 10.0147 15.4304 10.3139L16.5139 9.27661ZM8.38162 12.8126C8.39065 12.3985 8.06226 12.0555 7.64814 12.0464C7.23403 12.0374 6.891 12.3658 6.88198 12.7799L8.38162 12.8126ZM7.59448 14.5089L6.84465 14.4925L6.84458 14.4969L7.59448 14.5089ZM10.3061 17.3096L10.3224 16.5598L10.3184 16.5597L10.3061 17.3096ZM15.1526 18.1654C15.5667 18.1744 15.9098 17.846 15.9188 17.4319C15.9278 17.0178 15.5994 16.6748 15.1853 16.6658L15.1526 18.1654ZM8.15047 13.337C8.44968 13.0506 8.46002 12.5758 8.17358 12.2766C7.88714 11.9774 7.41238 11.9671 7.11317 12.2535L8.15047 13.337ZM5.16304 14.1205C4.86383 14.4069 4.85349 14.8817 5.13993 15.1809C5.42637 15.4801 5.90113 15.4904 6.20034 15.204L5.16304 14.1205ZM8.17358 12.2766C7.88714 11.9774 7.41238 11.9671 7.11317 12.2535C6.81397 12.54 6.80362 13.0147 7.09007 13.3139L8.17358 12.2766ZM8.95702 15.2641C9.24346 15.5633 9.71823 15.5736 10.0174 15.2872C10.3166 15.0007 10.327 14.526 10.0405 14.2268L8.95702 15.2641ZM18.5889 11.7617L18.6263 10.0481L17.1266 10.0155L17.0893 11.7291L18.5889 11.7617ZM18.6264 10.0438C18.6573 8.10765 17.1132 6.51279 15.1771 6.48117L15.1526 7.98097C16.2606 7.99906 17.1443 8.91178 17.1266 10.0198L18.6264 10.0438ZM15.1812 6.48124L10.3183 6.37528L10.2857 7.87492L15.1485 7.98089L15.1812 6.48124ZM18.3578 12.2872L20.3079 10.4202L19.2706 9.33669L17.3205 11.2036L18.3578 12.2872ZM18.3809 11.2268L16.5139 9.27661L15.4304 10.3139L17.2974 12.2641L18.3809 11.2268ZM6.88198 12.7799L6.84466 14.4925L8.3443 14.5252L8.38162 12.8126L6.88198 12.7799ZM6.84458 14.4969C6.8136 16.433 8.35771 18.0279 10.2939 18.0595L10.3184 16.5597C9.21033 16.5416 8.32666 15.6289 8.34439 14.5209L6.84458 14.4969ZM10.2898 18.0594L15.1526 18.1654L15.1853 16.6658L10.3224 16.5598L10.2898 18.0594ZM7.11317 12.2535L5.16304 14.1205L6.20034 15.204L8.15047 13.337L7.11317 12.2535ZM7.09007 13.3139L8.95702 15.2641L10.0405 14.2268L8.17358 12.2766L7.09007 13.3139Z" fill="#909090"/>
</svg>
