<svg width="18" height="18" viewBox="0 0 18 18" fill="none" xmlns="http://www.w3.org/2000/svg">
<path d="M13.5 10.4998C13.0569 10.5028 12.6199 10.6038 12.2205 10.7958C11.8211 10.9877 11.4692 11.2657 11.19 11.6098L7.36499 9.84734C7.54483 9.29665 7.54483 8.70303 7.36499 8.15234L11.19 6.38984C11.6412 6.93432 12.2702 7.3019 12.9661 7.42772C13.662 7.55354 14.3799 7.42951 14.9932 7.07752C15.6065 6.72553 16.0758 6.1682 16.3182 5.5039C16.5605 4.8396 16.5605 4.11103 16.318 3.44677C16.0755 2.78252 15.6061 2.22527 14.9927 1.87339C14.3794 1.52151 13.6614 1.39761 12.9656 1.52356C12.2697 1.64951 11.6408 2.01721 11.1896 2.56176C10.7385 3.10632 10.4943 3.79273 10.5 4.49984C10.5022 4.67852 10.5198 4.85667 10.5525 5.03234L6.59249 6.85484C6.1703 6.44203 5.63567 6.16298 5.05559 6.05266C4.47552 5.94235 3.87578 6.00567 3.33153 6.23469C2.78728 6.46371 2.32271 6.84826 1.99604 7.34014C1.66937 7.83202 1.49512 8.40937 1.49512 8.99984C1.49512 9.59032 1.66937 10.1677 1.99604 10.6595C2.32271 11.1514 2.78728 11.536 3.33153 11.765C3.87578 11.994 4.47552 12.0573 5.05559 11.947C5.63567 11.8367 6.1703 11.5577 6.59249 11.1448L10.5525 12.9673C10.5198 13.143 10.5022 13.3212 10.5 13.4998C10.5 14.0932 10.6759 14.6732 11.0056 15.1666C11.3352 15.6599 11.8038 16.0444 12.3519 16.2715C12.9001 16.4985 13.5033 16.558 14.0853 16.4422C14.6672 16.3264 15.2018 16.0407 15.6213 15.6212C16.0409 15.2016 16.3266 14.6671 16.4423 14.0851C16.5581 13.5032 16.4987 12.9 16.2716 12.3518C16.0446 11.8036 15.66 11.3351 15.1667 11.0054C14.6734 10.6758 14.0933 10.4998 13.5 10.4998ZM13.5 2.99984C13.7967 2.99984 14.0867 3.08782 14.3333 3.25264C14.58 3.41746 14.7723 3.65173 14.8858 3.92582C14.9993 4.19991 15.029 4.50151 14.9712 4.79248C14.9133 5.08345 14.7704 5.35072 14.5607 5.5605C14.3509 5.77028 14.0836 5.91314 13.7926 5.97102C13.5017 6.0289 13.2001 5.99919 12.926 5.88566C12.6519 5.77213 12.4176 5.57987 12.2528 5.3332C12.088 5.08652 12 4.79651 12 4.49984C12 4.10202 12.158 3.72049 12.4393 3.43918C12.7206 3.15788 13.1022 2.99984 13.5 2.99984ZM4.49999 10.4998C4.20332 10.4998 3.91331 10.4119 3.66664 10.247C3.41996 10.0822 3.2277 9.84796 3.11417 9.57387C3.00064 9.29978 2.97093 8.99818 3.02881 8.70721C3.08669 8.41623 3.22955 8.14896 3.43933 7.93918C3.64911 7.7294 3.91638 7.58654 4.20736 7.52866C4.49833 7.47079 4.79993 7.50049 5.07402 7.61402C5.3481 7.72755 5.58237 7.91981 5.74719 8.16649C5.91202 8.41316 5.99999 8.70317 5.99999 8.99984C5.99999 9.39767 5.84196 9.7792 5.56065 10.0605C5.27935 10.3418 4.89782 10.4998 4.49999 10.4998ZM13.5 14.9998C13.2033 14.9998 12.9133 14.9119 12.6666 14.747C12.42 14.5822 12.2277 14.348 12.1142 14.0739C12.0006 13.7998 11.9709 13.4982 12.0288 13.2072C12.0867 12.9162 12.2296 12.649 12.4393 12.4392C12.6491 12.2294 12.9164 12.0865 13.2074 12.0287C13.4983 11.9708 13.7999 12.0005 14.074 12.114C14.3481 12.2276 14.5824 12.4198 14.7472 12.6665C14.912 12.9132 15 13.2032 15 13.4998C15 13.8977 14.842 14.2792 14.5607 14.5605C14.2793 14.8418 13.8978 14.9998 13.5 14.9998Z" fill="#BDBDBD"/>
</svg>
